<svg id="Layer_1" data-name="Layer 1" xmlns="http://www.w3.org/2000/svg" viewBox="0 0 522.21 297.76"><defs><style>.cls-1{fill:#f9f9fa;}</style></defs><path class="cls-1" d="M436,250s-10.9-19.77-38.57-16.59-93.31-20.85-113.73-31.81S234.36,170,199.4,178s-66.12,12.44-88.29,39.51S77,248.53,64,251.43s-31.57,2.83-42.62-19.52c0,0,28,22.91,56-1.39s38.84-39.4,34-43.63-36.58,6.85-47.68-1.66c0,0,31.12-3.31,35.1-15.22,1.92-5.78-21.37-27.31-27.48-32.12S35.51,90.23,35.23,79.71c0,0,39.11,43,50.16,53.77s45.84,42.23,70.53,36.38,31.89-6.14,31.89-6.14,22.52-2.65,13.45-24.22c-6.73-16-46.39-110.83-58.82-123.89,0,0,24.72,14.85,54,81.56s87.27,87.58,94.69,90.71,56.46,26.33,56.95,2.42S333.67,112.91,327,104.87c0,0,34.9,37.5,34.09,79.42s32.93,34.22,48.59,24.86,60.31-55.22,32.73-106c0,0,22.54,19.94,17.36,53.78s-24,48.67-18,46.4,39-39.82,43.55-55.44c0,0-3.15,30.31-18.09,48.6S440,220.44,450.4,226.25s14.55,18.92,24.92,15.4-.15,12.11-18.38,11S430.26,260.56,436,250Z"/></svg>