<svg id="Layer_1" data-name="Layer 1" xmlns="http://www.w3.org/2000/svg" viewBox="0 0 1100 430.74"><defs><style>.cls-1{font-size:185.17px;font-family:Cinzel-SemiBold, Cinzel;font-weight:600;}.cls-1,.cls-6{fill:#f9f9fa;}.cls-2{letter-spacing:0em;}.cls-3{letter-spacing:-0.01em;}.cls-4{letter-spacing:0.01em;}.cls-5{letter-spacing:-0.01em;}</style></defs><text class="cls-1" transform="translate(35.22 372.65)">O<tspan class="cls-2" x="160.17" y="0">v</tspan><tspan class="cls-3" x="280.53" y="0">e</tspan><tspan x="382.74" y="0">rL</tspan><tspan class="cls-4" x="613.45" y="0">o</tspan><tspan class="cls-5" x="758.62" y="0">o</tspan><tspan x="899.9" y="0">k</tspan></text><path class="cls-6" d="M799.26,237s-9.66-17.53-34.19-14.72-82.74-18.48-100.84-28.2-43.72-28.06-74.72-21-58.63,11-78.29,35-30.23,27.56-41.8,30.13-28,2.51-37.79-17.31c0,0,24.84,20.31,49.65-1.23s34.44-34.93,30.14-38.69-32.43,6.08-42.27-1.47c0,0,27.6-2.93,31.12-13.5,1.71-5.12-18.95-24.2-24.37-28.47s-31.71-42.26-32-51.59c0,0,34.68,38.13,44.48,47.67S529.06,171.14,551,166s28.28-5.45,28.28-5.45,20-2.35,11.93-21.47c-6-14.2-41.14-98.27-52.16-109.85,0,0,21.92,13.16,47.86,72.31s77.38,77.65,84,80.43,50.06,23.35,50.5,2.15-12.76-68.62-18.66-75.75c0,0,30.94,33.25,30.22,70.42s29.2,30.34,43.08,22,53.48-49,29-94a54.88,54.88,0,0,1,15.39,47.68c-4.59,30-21.31,43.15-16,41.14S839,160.33,843,146.47c0,0-2.8,26.88-16,43.1S802.83,210.8,812.06,216s12.9,16.78,22.09,13.65-.13,10.75-16.3,9.75S794.2,246.38,799.26,237Z"/></svg>